<svg width="340" height="285" xmlns="http://www.w3.org/2000/svg">

 <g label="Camada 1" id="imagebot_3">
  <title>Camada 1</title>
  <g transform="translate(1.25 0) matrix(1 0 0 1 1.25 1.25)" id="imagebot_10">
   <path label="Camada 1" fill="#000000" transform="translate(0 1.25) matrix(1.6571 -0.11142 0.11142 1.6571 -507.444 -29.551)" d="M409.38,76.812C409.20686,76.8195 408.73951,76.85331 408.5675,76.8745S407.92478,76.96473 407.755,76.9995S407.10899,77.13887 406.9425,77.187S406.3234,77.40706 406.16125,77.46825S405.53678,77.70689 405.38,77.78075S404.81168,78.06969 404.66125,78.15575S404.08562,78.49552 403.9425,78.59325S403.42117,78.98448 403.28625,79.09325L363.59825,111.21825C363.40648,111.3726 362.89643,111.85579 362.72325,112.03075S362.09438,112.71241 361.942,112.90575S361.38415,113.66524 361.2545,113.8745S360.79727,114.68322 360.692,114.9057C360.58673,115.12823 360.33405,115.76649 360.2545,115.9995C360.175,116.23246 359.99482,116.88406 359.942,117.1245C359.8892,117.36494 359.77992,118.0359 359.7545,118.2807C359.7291,118.52555 359.6897,119.22204 359.692,119.4682C359.694,119.71436 359.7245,120.41137 359.7545,120.6557S359.91594,121.57255 359.97325,121.8119C360.03055,122.0513 360.2331,122.70547 360.317,122.9369S360.67633,123.81013 360.78575,124.0307C360.89517,124.25122 361.24595,124.8239 361.3795,125.0307S361.91102,125.809 362.067,125.99945S362.67183,126.70277 362.84825,126.87445S363.55987,127.47372 363.7545,127.62445L389.5665,147.71845L384.5665,183.40645L384.5665,183.46895C384.5266,183.71311 384.45689,184.26257 384.4415,184.46895C384.4252,184.68805 384.4045,185.28057 384.4102,185.50015C384.4162,185.71978 384.4762,186.34471 384.5039,186.56265C384.5317,186.78059 384.64189,187.37985 384.6914,187.59385C384.7409,187.8079 384.90189,188.38585 384.97265,188.59385C385.04345,188.80185 385.28761,189.39401 385.3789,189.59385C385.4702,189.79369 385.73676,190.31044 385.84765,190.5001S386.28077,191.22878 386.41015,191.40635S386.95109,192.05517 387.09765,192.21885S387.65415,192.82071 387.8164,192.96885S388.45259,193.494 388.6289,193.6251S389.31532,194.10612 389.5039,194.21885S390.24245,194.62563 390.4414,194.71885C390.64035,194.81205 391.20285,195.02108 391.41015,195.09385C391.61745,195.16665 392.19659,195.35476 392.41015,195.40635C392.62371,195.45795 393.25499,195.56397 393.47265,195.59385C393.69031,195.62375 394.28434,195.67975 394.50385,195.68755C394.72341,195.69555 395.34711,195.67055 395.56635,195.65625C395.78559,195.64205 396.38089,195.59865 396.59755,195.56255C396.81426,195.52635 397.41682,195.37029 397.62875,195.31255C397.84073,195.25485 398.42364,195.07878 398.62875,195.00005C398.83386,194.92135 399.40133,194.66148 399.5975,194.56255C399.79367,194.46365 400.31851,194.18068 400.50375,194.06255S401.2063,193.57368 401.37875,193.43755S402.0021,192.90281 402.16,192.75005S402.73698,192.13665 402.87875,191.9688S403.37955,191.33753 403.50375,191.1563S403.96088,190.44284 404.06625,190.25005S404.41827,189.51494 404.50375,189.31255C404.58925,189.11016 404.81403,188.5225 404.87875,188.31255C404.94345,188.1026 405.08544,187.49669 405.12875,187.28135C405.16825,187.0851 405.2551,186.60025 405.285,186.34385C405.288,186.31885 405.283,186.26955 405.285,186.25015L411.0975,144.62515C411.1369,144.34244 411.189,143.53555 411.1912,143.25015C411.1932,142.96471 411.1637,142.15845 411.1287,141.87515C411.0937,141.59186 410.91912,140.80775 410.84745,140.53135C410.77575,140.25505 410.5483,139.51465 410.4412,139.25015C410.3341,138.98556 409.98814,138.24855 409.84745,138.00015C409.70676,137.75179 409.26934,137.10304 409.09745,136.87515S408.39134,136.04742 408.1912,135.84395C407.99106,135.64043 407.38493,135.11338 407.16,134.9377L386.972,119.2497L409.378,101.0937L431.034,121.3437C431.16647,121.46714 431.54801,121.79417 431.69025,121.9062S432.25796,122.30634 432.409,122.4062C432.56004,122.5061 433.0002,122.7567 433.159,122.8437S433.77479,123.17641 433.94025,123.24995C434.10571,123.32345 434.55051,123.50288 434.7215,123.56245C434.89249,123.62205 435.38991,123.76725 435.56525,123.81245S436.23052,123.96944 436.409,123.99995C436.58748,124.03045 437.10361,124.07805 437.284,124.09365L458.346,125.93745L458.4397,125.93745C458.69659,125.96575 459.2075,126.02585 459.40845,126.03115C459.62868,126.03715 460.22,126.01615 460.43965,125.99985C460.65935,125.98355 461.2852,125.91315 461.50215,125.87485S462.32142,125.68483 462.53335,125.62485C462.74533,125.56485 463.32848,125.36212 463.53335,125.2811C463.73822,125.2001 464.30643,124.94484 464.5021,124.8436S465.22387,124.43278 465.40835,124.31235S466.08069,123.82574 466.2521,123.68735S466.87674,123.1548 467.03335,122.99985S467.61189,122.38853 467.7521,122.2186S468.25471,121.55804 468.3771,121.37485S468.80503,120.66318 468.90835,120.4686S469.2939,119.70384 469.3771,119.49985S469.65861,118.74243 469.72085,118.5311C469.78305,118.31977 469.93021,117.71638 469.97085,117.4999C470.01145,117.28337 470.07722,116.65692 470.09585,116.4374C470.11445,116.21788 470.13065,115.62643 470.12715,115.4062C470.12315,115.18592 470.09035,114.5625 470.06465,114.3437S469.95603,113.52755 469.9084,113.3125C469.8608,113.0974 469.6962,112.49046 469.62715,112.2813C469.55805,112.07209 469.31066,111.51374 469.2209,111.31255C469.1311,111.11136 468.86172,110.53493 468.75215,110.3438S468.3179,109.64793 468.18965,109.4688S467.67904,108.8216 467.5334,108.6563S466.94494,108.0561 466.7834,107.9063S466.14671,107.35157 465.9709,107.2188S465.28418,106.73944 465.0959,106.62505S464.38849,106.2199 464.18965,106.12505C463.99081,106.03025 463.42828,105.79315 463.2209,105.7188C463.01352,105.6445 462.40346,105.45939 462.1897,105.4063C461.97589,105.3532 461.37652,105.25009 461.1585,105.2188C460.95353,105.1894 460.43826,105.1388 460.18975,105.1251L460.12725,105.1251L442.72125,103.5939L417.00225,79.5939C416.84348,79.44553 416.36248,79.0695 416.18975,78.93765S415.53098,78.45792 415.346,78.3439S414.63515,77.93897 414.43975,77.8439S413.67489,77.51282 413.471,77.43765S412.68135,77.17968 412.471,77.12515S411.68573,76.93975 411.471,76.9064S410.62548,76.82448 410.4085,76.81265S409.59433,76.80285 409.3773,76.81265L409.38,76.812z" id="imagebot_7"/>
   <path transform="translate(0 1.25) matrix(1 0 0 1 -235.634 -41.648)" label="Camada 1" fill="#000000" d="M486,70.984C486,87.186 472.866,100.32 456.664,100.32S427.328,87.186 427.328,70.984S440.462,41.648 456.664,41.648S486,54.782 486,70.984zM500.729,183.004C462.656,183.004 431.664,213.996 431.664,252.069S462.656,321.134 500.729,321.134S569.794,290.142 569.794,252.069S538.802,183.004 500.729,183.004zM500.729,196.721C531.394,196.721 556.158,221.404 556.158,252.069S531.395,307.417 500.729,307.417C470.064,307.417 445.381,282.734 445.381,252.069S470.064,196.721 500.729,196.721zM305.949,183.001C267.876,183.001 236.884,213.993 236.884,252.066S267.876,321.131 305.949,321.131S375.014,290.139 375.014,252.066S344.022,183.001 305.949,183.001zM305.949,196.718C336.614,196.718 361.378,221.401 361.378,252.066S336.615,307.414 305.949,307.414C275.284,307.414 250.601,282.731 250.601,252.066S275.284,196.718 305.949,196.718z" id="imagebot_6"/>
  </g>
 </g>
 <metadata id="imagebot_2">image/svg+xmlOpenclipart</metadata>
</svg>